<svg width="25" height="25" viewBox="0 0 25 25" fill="none" xmlns="http://www.w3.org/2000/svg">
<path d="M19.7917 17.7083V19.7917H7.29167V17.7083C7.29167 17.7083 7.29167 13.5417 13.5417 13.5417C19.7917 13.5417 19.7917 17.7083 19.7917 17.7083ZM16.6667 8.33334C16.6667 7.71528 16.4834 7.11109 16.14 6.59719C15.7966 6.08328 15.3086 5.68275 14.7376 5.44622C14.1665 5.2097 13.5382 5.14781 12.932 5.26839C12.3258 5.38897 11.769 5.6866 11.332 6.12364C10.8949 6.56068 10.5973 7.1175 10.4767 7.72369C10.3561 8.32988 10.418 8.95821 10.6545 9.52923C10.8911 10.1002 11.2916 10.5883 11.8055 10.9317C12.3194 11.2751 12.9236 11.4583 13.5417 11.4583C14.3705 11.4583 15.1653 11.1291 15.7514 10.5431C16.3374 9.957 16.6667 9.16215 16.6667 8.33334ZM20 13.6042C20.5694 14.1295 21.0285 14.763 21.3504 15.4676C21.6723 16.1723 21.8507 16.934 21.875 17.7083V19.7917H25V17.7083C25 17.7083 25 14.1146 20 13.6042ZM18.75 5.20834C18.4353 5.20853 18.1225 5.25773 17.8229 5.35418C18.4323 6.2281 18.7591 7.26791 18.7591 8.33334C18.7591 9.39878 18.4323 10.4386 17.8229 11.3125C18.1225 11.409 18.4353 11.4582 18.75 11.4583C19.5788 11.4583 20.3737 11.1291 20.9597 10.5431C21.5458 9.957 21.875 9.16215 21.875 8.33334C21.875 7.50454 21.5458 6.70969 20.9597 6.12364C20.3737 5.53758 19.5788 5.20834 18.75 5.20834ZM8.33333 10.4167H5.20833V7.29168H3.125V10.4167H0V12.5H3.125V15.625H5.20833V12.5H8.33333V10.4167Z" fill="#0BA360"/>
</svg>
