<svg width="25" height="25" viewBox="0 0 25 25" fill="none" xmlns="http://www.w3.org/2000/svg">
<g clip-path="url(#clip0_2337_126)">
<path d="M17.7083 3.125C18.5053 3.12496 19.2723 3.42951 19.8523 3.97634C20.4322 4.52317 20.7813 5.27094 20.828 6.06667L20.8333 6.25V10.7812L21.452 10.5063C22.0916 10.2219 22.8291 10.6625 22.9103 11.3375L22.9166 11.4583V19.7917C22.9168 20.3173 22.7182 20.8235 22.3609 21.2089C22.0035 21.5943 21.5136 21.8304 20.9895 21.8698L20.8333 21.875H4.16659C3.64099 21.8752 3.13475 21.6767 2.74935 21.3193C2.36395 20.9619 2.12788 20.472 2.08846 19.9479L2.08325 19.7917V11.4583C2.08325 10.7583 2.78638 10.2635 3.43429 10.4635L3.54888 10.5063L4.16659 10.7812V6.25C4.16654 5.45291 4.47109 4.68592 5.01792 4.10598C5.56475 3.52603 6.31253 3.17697 7.10825 3.13021L7.29159 3.125H17.7083ZM17.7083 5.20833H7.29159C7.01532 5.20833 6.75037 5.31808 6.55502 5.51343C6.35967 5.70878 6.24992 5.97373 6.24992 6.25V11.7073L12.4999 14.4854L18.7499 11.7073V6.25C18.7499 5.97373 18.6402 5.70878 18.4448 5.51343C18.2495 5.31808 17.9845 5.20833 17.7083 5.20833ZM12.4999 8.33333C12.7654 8.33363 13.0208 8.43529 13.2138 8.61755C13.4069 8.79981 13.5231 9.04891 13.5386 9.31395C13.5542 9.579 13.468 9.83998 13.2976 10.0436C13.1272 10.2472 12.8854 10.378 12.6218 10.4094L12.4999 10.4167H10.4166C10.1511 10.4164 9.89572 10.3147 9.70266 10.1324C9.5096 9.95019 9.39342 9.70109 9.37786 9.43605C9.36231 9.171 9.44854 8.91002 9.61894 8.70642C9.78935 8.50283 10.0311 8.37198 10.2947 8.34062L10.4166 8.33333H12.4999Z" fill="#0BA360"/>
</g>
<defs>
<clipPath id="clip0_2337_126">
<rect width="25" height="25" fill="white"/>
</clipPath>
</defs>
</svg>
